Coordinates
version=1
nRows=49
nColumns=12
inDegrees=yes

Units are S.I. units (second, meters, Newtons, ...)
Angles are in degrees

endheader
time	SC_y	SC_z	SC_x	AC_y	AC_z	AC_x	GH_y	GH_z	GH_yy	EL_x	PS_y
       0.0               -31.2          23.13           73.0          58.02          -11.1         -12.37         -24.12          3.367         -97.14          5.909           53.4
  0.006945               -31.2          23.13           73.0          58.01          -11.1         -12.37         -24.12          3.373         -97.12          5.918          53.41
   0.01389              -31.21          23.13          72.99          58.01          -11.1         -12.37         -24.13           3.38          -97.1          5.928          53.42
   0.02083              -31.21          23.13          72.98          58.01          -11.1         -12.36         -24.13          3.388         -97.08          5.939          53.42
   0.02778              -31.21          23.13          72.97           58.0          -11.1         -12.36         -24.13          3.396         -97.06           5.95          53.43
   0.03472              -31.22          23.13          72.96           58.0          -11.1         -12.36         -24.14          3.405         -97.04          5.963          53.44
   0.04167              -31.22          23.13          72.95           58.0          -11.1         -12.36         -24.14          3.414         -97.01          5.976          53.45
   0.04861              -31.23          23.12          72.94          57.99         -11.11         -12.36         -24.14          3.424         -96.99           5.99          53.46
   0.05556              -31.23          23.12          72.93          57.99         -11.11         -12.36         -24.15          3.434         -96.96          6.005          53.48
    0.0625              -31.24          23.12          72.91          57.98         -11.11         -12.36         -24.15          3.446         -96.93          6.021          53.49
   0.06945              -31.24          23.12           72.9          57.98         -11.11         -12.35         -24.16          3.458          -96.9          6.038           53.5
   0.07639              -31.25          23.12          72.88          57.97         -11.11         -12.35         -24.16          3.471         -96.87          6.056          53.52
   0.08334              -31.26          23.12          72.87          57.97         -11.11         -12.35         -24.17          3.485         -96.83          6.076          53.53
   0.09028              -31.27          23.11          72.85          57.96         -11.12         -12.35         -24.17            3.5          -96.8          6.098          53.55
   0.09723              -31.27          23.11          72.83          57.95         -11.12         -12.34         -24.18          3.517         -96.75          6.121          53.57
    0.1042              -31.28          23.11          72.81          57.95         -11.12         -12.34         -24.19          3.534         -96.71          6.146          53.59
    0.1111              -31.29          23.11          72.79          57.94         -11.12         -12.34          -24.2          3.554         -96.66          6.174          53.61
    0.1181               -31.3           23.1          72.77          57.93         -11.13         -12.34         -24.21          3.575          -96.6          6.204          53.64
     0.125              -31.31           23.1          72.74          57.92         -11.13         -12.33         -24.22          3.598         -96.55          6.237          53.66
     0.132              -31.32           23.1          72.71          57.91         -11.13         -12.33         -24.23          3.623         -96.48          6.272          53.69
    0.1389              -31.34          23.09          72.68           57.9         -11.14         -12.32         -24.24          3.651         -96.41          6.312          53.72
    0.1458              -31.35          23.09          72.64          57.88         -11.14         -12.32         -24.25          3.682         -96.33          6.355          53.76
    0.1528              -31.37          23.08          72.61          57.87         -11.15         -12.31         -24.26          3.715         -96.25          6.403          53.79
    0.1597              -31.39          23.08          72.56          57.85         -11.15         -12.31         -24.28          3.753         -96.15          6.456          53.84
    0.1667              -31.41          23.07          72.51          57.84         -11.16          -12.3          -24.3          3.794         -96.05          6.515          53.88
    0.1736              -31.43          23.07          72.46          57.82         -11.16         -12.29         -24.32          3.841         -95.93          6.581          53.94
    0.1806              -31.46          23.06           72.4          57.79         -11.17         -12.29         -24.34          3.892          -95.8          6.654          53.99
    0.1875              -31.48          23.05          72.34          57.77         -11.18         -12.28         -24.36          3.951         -95.65          6.737          54.06
    0.1945              -31.52          23.04          72.26          57.74         -11.19         -12.27         -24.39          4.017         -95.48          6.831          54.14
    0.2014              -31.55          23.03          72.18          57.71          -11.2         -12.25         -24.42          4.092         -95.29          6.937          54.22
    0.2083              -31.59          23.02          72.08          57.67         -11.21         -12.24         -24.45          4.177         -95.07          7.058          54.32
    0.2153              -31.64          23.01          71.97          57.63         -11.23         -12.22          -24.5          4.276         -94.82          7.197          54.43
    0.2222               -31.7          22.99          71.84          57.58         -11.24         -12.21         -24.54          4.389         -94.53          7.358          54.56
    0.2292              -31.76          22.97          71.69          57.53         -11.26         -12.19          -24.6          4.521          -94.2          7.545          54.71
    0.2361              -31.84          22.95          71.51          57.46         -11.28         -12.16         -24.66          4.675          -93.8          7.763          54.88
    0.2431              -31.92          22.92           71.3          57.38         -11.31         -12.13         -24.74          4.856         -93.34          8.021          55.09
      0.25              -32.03          22.89          71.06          57.29         -11.34          -12.1         -24.82          5.072         -92.79          8.327          55.33
     0.257              -32.16          22.86          70.76          57.18         -11.38         -12.06         -24.93          5.331         -92.13          8.694          55.62
    0.2639              -32.31          22.81           70.4          57.05         -11.42         -12.01         -25.06          5.644         -91.33          9.138          55.98
    0.2709              -32.49          22.76          69.97          56.89         -11.48         -11.95         -25.22          6.027         -90.36           9.68          56.41
    0.2778              -32.72          22.69          69.43          56.69         -11.54         -11.87         -25.41          6.499         -89.16          10.35          56.94
    0.2847              -33.01          22.61          68.76          56.44         -11.63         -11.78         -25.66          7.087         -87.66          11.18          57.61
    0.2917              -33.37          22.51          67.91          56.12         -11.73         -11.66         -25.96          7.829         -85.77          12.23          58.45
    0.2986              -33.83          22.38          66.83          55.72         -11.87         -11.52         -26.35          8.771         -83.37          13.57          59.51
    0.3056              -34.42          22.21          65.46          55.21         -12.04         -11.33         -26.85          9.978          -80.3          15.28          60.88
    0.3125              -35.17          21.99          63.69          54.55         -12.26         -11.08         -27.49          11.53         -76.35          17.48          62.63
    0.3195              -36.13          21.71          61.43          53.71         -12.54         -10.77         -28.31           13.5         -71.32          20.28          64.87
    0.3264              -37.34          21.36          58.59          52.65          -12.9         -10.38         -29.34          15.99         -64.98          23.81          67.68
    0.3334              -38.81          20.94          55.13          51.36         -13.33         -9.901         -30.59          19.02         -57.27           28.1          71.11
